<svg width="794" height="771" viewBox="0 0 794 771" fill="none" xmlns="http://www.w3.org/2000/svg">
<g clip-path="url(#clip0_316_167)">
<path d="M455 616.5V437L479.984 450.353C482.656 451.782 485.452 452.964 488.338 453.886L498.92 457.266C512.889 461.728 527.465 464 542.13 464H545.818C553.909 464 561.971 463.018 569.826 461.075L592.479 455.473C600.463 453.499 608.172 450.547 615.433 446.685L628 440V616.5L539 556.5L455 616.5Z" stroke="white" stroke-width="31"/>
<path d="M397 300.5C397 220.695 461.695 156 541.5 156C621.305 156 686 220.695 686 300.5C686 344.868 666.022 384.555 634.516 411.086C609.374 432.258 576.945 445 541.5 445C506.055 445 473.626 432.258 448.484 411.086C416.978 384.555 397 344.868 397 300.5Z" stroke="white" stroke-width="50"/>
<path d="M542 365C576.794 365 605 336.794 605 302C605 267.206 576.794 239 542 239C507.206 239 479 267.206 479 302C479 336.794 507.206 365 542 365Z" fill="white"/>
<path d="M109 214L330 213" stroke="white" stroke-width="29" stroke-linecap="round"/>
<path d="M109 290L330 291" stroke="white" stroke-width="31" stroke-linecap="round"/>
<path d="M109 365L330 363" stroke="white" stroke-width="27" stroke-linecap="round"/>
<path d="M179.087 574.088C170.667 596.437 159.067 536.28 174.755 540.192C186.973 543.239 190.279 558.131 196.471 567.628C205.621 581.666 191.578 569.074 185.766 567.275C172.933 563.304 182.846 568.434 185.043 563.763C186.926 559.758 194.925 547.824 200.291 548.258C215.434 549.483 216.534 560.876 221.076 571.79C223.272 577.068 228.926 555.828 230.087 552.052C234.292 538.364 243.028 558.046 247.645 562.089C250.583 564.662 258.578 538.361 260.04 540.933C262.929 546.012 261.268 568.415 268.599 551.473C270.138 547.915 274.918 550.624 277.507 551.27C282.523 552.521 283.734 540.597 284.72 537.388C288.194 526.078 286.908 518.664 299.437 522.54C304.101 523.985 312.261 528.31 317.079 527.507C322.52 526.599 322.135 518.527 324.269 514.769C326.589 510.678 326.094 524.011 326.712 528.678C328.911 545.3 331.952 561.745 334.914 578.241C337.921 594.996 335.117 636.601 351 648" stroke="white" stroke-width="8" stroke-linecap="round"/>
<path d="M172.261 620C148.548 612.683 212.457 592.833 216.306 591.329C273.616 568.946 332.62 551.862 389 527" stroke="white" stroke-width="15" stroke-linecap="round"/>
</g>
<rect x="25" y="25" width="744" height="721" rx="98" stroke="white" stroke-width="50"/>
<defs>
<clipPath id="clip0_316_167">
<rect width="794" height="771" rx="123" fill="white"/>
</clipPath>
</defs>
</svg>
