<svg width="614" height="612" viewBox="0 0 614 612" fill="none" xmlns="http://www.w3.org/2000/svg">
<path d="M102.091 435.064C101.591 436.064 112.091 441 126.091 459.064C142.091 481.864 145 492.5 146.591 495.564C150 503.5 161.115 513.75 164.591 516.064C169 519 176.091 528.064 209.591 527.564C236.391 527.164 247.909 525 246.295 525V511V497.032V482.5L247.909 475.5L250.5 469C250.275 470.5 244.091 485.664 240.091 486.064C235.691 487.264 229.591 488.898 227.091 489.564C216.258 491.398 191.691 492.764 180.091 483.564C168.491 474.364 161.781 464 160.091 461.564C154.424 453.398 131.5 433.5 122.5 431.5C113.5 429.5 123.5 431.5 123.5 431.72C119.5 430.064 114.919 430.064 112.091 430.064C108 430.064 101.091 431.564 102.091 435.064Z" stroke="white" stroke-width="30" stroke-linecap="round"/>
<path d="M207.5 594L126.83 596.095C65.5435 597.687 15 548.439 15 487.132V124C15 63.801 63.801 15 124 15H490C550.199 15 599 63.801 599 124V487.177C599 548.467 548.484 597.708 487.213 596.141L403.5 594" stroke="white" stroke-width="30"/>
<path d="M224 174.604C203.605 162.687 163.354 135.361 153.856 140.673C141.984 147.312 134.535 210.58 148.834 220.058C161.162 228.229 179.339 180.129 225 174" stroke="white" stroke-width="30"/>
<path d="M394.929 176.611C413.867 164.693 451.243 137.365 460.062 142.677C471.086 149.317 478.003 212.59 464.726 222.068C453.278 230.24 436.399 182.136 394 176.007" stroke="white" stroke-width="30"/>
<path d="M270 172H343C417.558 172 478 232.442 478 307V316C478 370.676 433.676 415 379 415H235C179.772 415 135 370.228 135 315V307C135 232.442 195.442 172 270 172Z" stroke="white" stroke-width="30"/>
<path d="M208 594V594C229.235 594 246.449 576.786 246.449 555.551V491.138C246.449 457.373 273.821 430 307.587 430V430C341.122 430 368.398 457.014 368.722 490.547L369.381 558.724C369.57 578.261 385.462 594 405 594V594" stroke="white" stroke-width="30" stroke-linecap="round"/>
</svg>
