<svg width="664" height="664" viewBox="0 0 664 664" fill="none" xmlns="http://www.w3.org/2000/svg">
<rect x="25" y="25" width="614" height="614" rx="79" stroke="white" stroke-width="50"/>
<path d="M158.731 88.7214L158.727 88.7202C156.239 87.9046 152.099 87.1465 147.337 86.8136C142.594 86.4819 138.431 86.656 135.918 87.0974C123.039 89.4518 109.563 99.603 103.649 111.509C90.591 138.058 103.619 168.215 131.249 176.654L131.28 176.664L131.311 176.674C155.848 184.285 182.764 169.301 189.143 144.585L189.147 144.569L189.151 144.552C195.416 120.502 182.147 96.3922 158.731 88.7214ZM352 271.533V267.333H315.667H279.333V405.667V544H315.667H352V464.6C352 462.468 352 460.379 352 458.333C351.998 411.455 351.997 387.175 352.935 373.352C353.431 366.025 354.248 360.406 355.972 355.416C357.543 350.867 359.731 347.396 361.355 344.819C361.535 344.534 361.708 344.259 361.872 343.996L361.876 343.99L361.88 343.983C375.534 322.137 402.894 308.916 428.101 313.579C452.704 318.034 472.274 335.077 480.272 358.716C482.142 364.215 482.641 370.739 482.946 384.227C483.268 398.404 483.333 422.403 483.333 464.6V544H519.667H556.059L555.6 451.341L555.6 451.329L555.6 451.316C555.576 444.025 555.556 437.217 555.538 430.855C555.4 383.687 555.334 361.028 554.203 347.646C553.597 340.472 552.742 336.888 551.702 333.994C550.781 331.431 549.704 329.256 547.857 325.529C547.186 324.176 546.414 322.618 545.512 320.762L545.508 320.755L545.505 320.748C531.992 292.9 507.876 272.477 478.841 264.079C474.264 262.767 465.691 261.634 456.454 261.236C446.899 260.824 439.514 261.33 436.818 262.04L436.772 262.052L436.726 262.063C418.611 266.708 403.656 275.307 390.052 289.028L390.001 289.079L389.949 289.131L377.549 301.397L352 326.672V290.733V271.533ZM108.667 544H145H181.333V405.667V267.333H145H108.667V405.667V544Z" fill="white" stroke="white" stroke-width="30"/>
</svg>
