<svg width="413" height="540" viewBox="0 0 413 540" fill="none" xmlns="http://www.w3.org/2000/svg">
<rect x="2.5" y="2.5" width="408" height="535" stroke="white" stroke-width="5"/>
<path d="M34.048 139V133.816L36.16 133.624C37.3973 133.496 38.016 132.899 38.016 131.832V102.072L34.368 101.88V96.44H52.672C57.4507 96.44 61.1627 97.5707 63.808 99.832C66.496 102.051 67.84 105.4 67.84 109.88C67.84 114.36 66.3253 117.859 63.296 120.376C60.2667 122.851 56.256 124.088 51.264 124.088H45.824V133.368L51.968 133.56V139H34.048ZM45.824 117.88H50.432C56.6613 117.88 59.776 115.341 59.776 110.264C59.776 107.192 58.9653 105.165 57.344 104.184C55.7653 103.16 53.2267 102.648 49.728 102.648H45.824V117.88ZM105.782 133.944V139H95.414V134.84C93.0673 138.168 89.6113 139.832 85.046 139.832C78.4327 139.832 75.126 136.141 75.126 128.76V113.976C75.126 112.824 74.5927 112.227 73.526 112.184L71.478 112.056V106.808H82.742V127.096C82.742 129.357 83.062 131.064 83.702 132.216C84.342 133.368 85.6647 133.944 87.67 133.944C89.6753 133.944 91.2753 133.325 92.47 132.088C93.7073 130.851 94.326 129.357 94.326 127.608V114.104C94.326 113.421 94.198 112.952 93.942 112.696C93.7287 112.397 93.3233 112.227 92.726 112.184L90.678 112.056V106.808H101.942V131.896C101.942 132.579 102.049 133.048 102.262 133.304C102.475 133.517 102.902 133.667 103.542 133.752L105.782 133.944ZM113.643 131.832V114.104C113.643 113.421 113.515 112.952 113.259 112.696C113.045 112.397 112.64 112.227 112.043 112.184L109.355 111.992V106.808H120.171V111.608C120.939 109.944 122.133 108.579 123.755 107.512C125.376 106.403 127.232 105.848 129.323 105.848C131.456 105.848 133.483 106.317 135.403 107.256V116.792L129.451 117.24V114.296C129.451 113.443 129.237 112.909 128.811 112.696C128.341 112.483 127.765 112.376 127.083 112.376C125.376 112.376 123.968 112.995 122.859 114.232C121.792 115.427 121.259 116.963 121.259 118.84V133.688L126.827 133.944V139H109.674V134.136L111.786 133.944C112.427 133.859 112.896 133.688 113.195 133.432C113.493 133.133 113.643 132.6 113.643 131.832ZM155.301 105.848C158.501 105.848 161.04 106.637 162.917 108.216C164.794 109.752 165.733 111.928 165.733 114.744C165.733 116.621 165.328 118.285 164.517 119.736C163.706 121.144 162.704 122.253 161.509 123.064C160.314 123.875 158.864 124.536 157.157 125.048C154.298 125.901 151.077 126.328 147.493 126.328C147.621 128.589 148.325 130.424 149.605 131.832C150.885 133.197 152.848 133.88 155.493 133.88C158.138 133.88 160.784 132.941 163.429 131.064L165.861 136.248C165.008 137.016 163.557 137.805 161.509 138.616C159.504 139.427 157.2 139.832 154.597 139.832C149.392 139.832 145.573 138.403 143.141 135.544C140.709 132.643 139.493 128.675 139.493 123.64C139.493 118.605 140.88 114.381 143.653 110.968C146.426 107.555 150.309 105.848 155.301 105.848ZM152.357 120.504C153.936 120.205 155.386 119.587 156.709 118.648C158.032 117.667 158.693 116.515 158.693 115.192C158.693 112.589 157.413 111.288 154.853 111.288C152.464 111.288 150.629 112.248 149.349 114.168C148.069 116.045 147.365 118.307 147.237 120.952C149.114 120.909 150.821 120.76 152.357 120.504ZM186.954 131.832V100.664C186.954 99.9813 186.826 99.512 186.57 99.256C186.356 99 185.951 98.8507 185.354 98.808L183.114 98.68V93.368H194.506V110.584C196.724 107.427 199.839 105.848 203.85 105.848C207.092 105.848 209.588 106.787 211.338 108.664C213.13 110.499 214.026 113.272 214.026 116.984V133.688L217.674 133.88V139H202.442V134.136L204.554 133.944C205.194 133.859 205.663 133.688 205.962 133.432C206.26 133.133 206.41 132.6 206.41 131.832V118.648C206.41 116.429 206.047 114.723 205.322 113.528C204.639 112.333 203.274 111.736 201.226 111.736C199.22 111.736 197.599 112.376 196.362 113.656C195.167 114.893 194.57 116.408 194.57 118.2V133.688L198.218 133.88V139H182.986V134.136L185.098 133.944C185.738 133.859 186.207 133.688 186.506 133.432C186.804 133.133 186.954 132.6 186.954 131.832ZM237.489 105.848C240.689 105.848 243.227 106.637 245.105 108.216C246.982 109.752 247.921 111.928 247.921 114.744C247.921 116.621 247.515 118.285 246.705 119.736C245.894 121.144 244.891 122.253 243.697 123.064C242.502 123.875 241.051 124.536 239.345 125.048C236.486 125.901 233.265 126.328 229.681 126.328C229.809 128.589 230.513 130.424 231.793 131.832C233.073 133.197 235.035 133.88 237.681 133.88C240.326 133.88 242.971 132.941 245.617 131.064L248.049 136.248C247.195 137.016 245.745 137.805 243.697 138.616C241.691 139.427 239.387 139.832 236.785 139.832C231.579 139.832 227.761 138.403 225.329 135.544C222.897 132.643 221.681 128.675 221.681 123.64C221.681 118.605 223.067 114.381 225.841 110.968C228.614 107.555 232.497 105.848 237.489 105.848ZM234.545 120.504C236.123 120.205 237.574 119.587 238.897 118.648C240.219 117.667 240.881 116.515 240.881 115.192C240.881 112.589 239.601 111.288 237.041 111.288C234.651 111.288 232.817 112.248 231.537 114.168C230.257 116.045 229.553 118.307 229.425 120.952C231.302 120.909 233.009 120.76 234.545 120.504ZM281.161 108.088V131.896C281.161 132.579 281.267 133.048 281.481 133.304C281.737 133.56 282.163 133.709 282.761 133.752L284.809 133.88V139H274.633V135.288L274.441 135.224C272.307 138.296 269.385 139.832 265.673 139.832C261.321 139.832 258.099 138.445 256.009 135.672C253.918 132.899 252.873 129.101 252.873 124.28C252.873 118.477 254.281 113.955 257.097 110.712C259.913 107.469 264.137 105.848 269.769 105.848C273.395 105.848 277.193 106.595 281.161 108.088ZM273.737 128.824V112.248C272.542 111.693 270.899 111.416 268.809 111.416C265.95 111.416 263.881 112.568 262.601 114.872C261.321 117.176 260.681 120.227 260.681 124.024C260.681 130.936 262.899 134.392 267.337 134.392C269.214 134.392 270.75 133.837 271.945 132.728C273.139 131.576 273.737 130.275 273.737 128.824ZM300.193 93.368V133.688L303.841 133.88V139H288.609V134.136L290.721 133.944C291.958 133.816 292.577 133.133 292.577 131.896V100.344C292.577 99.4053 292.044 98.8933 290.977 98.808L288.737 98.68V93.368H300.193ZM313.654 100.024H317.814V106.808H326.326L325.686 112.184H317.814V129.016C317.814 130.893 318.155 132.216 318.838 132.984C319.52 133.709 320.566 134.072 321.974 134.072C323.424 134.072 324.875 133.624 326.326 132.728L328.246 137.656C326.112 139.149 323.403 139.896 320.118 139.896C318.198 139.896 316.576 139.64 315.254 139.128C313.931 138.659 312.95 138.125 312.31 137.528C311.67 136.931 311.179 136.056 310.838 134.904C310.496 133.752 310.304 132.856 310.262 132.216C310.219 131.533 310.198 130.552 310.198 129.272V112.184H305.654L306.294 107.512C308.299 107.341 309.814 106.637 310.838 105.4C311.862 104.12 312.8 102.328 313.654 100.024ZM334.579 131.832V100.664C334.579 99.9813 334.451 99.512 334.195 99.256C333.981 99 333.576 98.8507 332.979 98.808L330.739 98.68V93.368H342.131V110.584C344.349 107.427 347.464 105.848 351.475 105.848C354.717 105.848 357.213 106.787 358.963 108.664C360.755 110.499 361.651 113.272 361.651 116.984V133.688L365.299 133.88V139H350.067V134.136L352.179 133.944C352.819 133.859 353.288 133.688 353.587 133.432C353.885 133.133 354.035 132.6 354.035 131.832V118.648C354.035 116.429 353.672 114.723 352.947 113.528C352.264 112.333 350.899 111.736 348.851 111.736C346.845 111.736 345.224 112.376 343.987 113.656C342.792 114.893 342.195 116.408 342.195 118.2V133.688L345.843 133.88V139H330.611V134.136L332.723 133.944C333.363 133.859 333.832 133.688 334.131 133.432C334.429 133.133 334.579 132.6 334.579 131.832ZM50.176 192.848C53.376 192.848 55.9147 193.637 57.792 195.216C59.6693 196.752 60.608 198.928 60.608 201.744C60.608 203.621 60.2027 205.285 59.392 206.736C58.5813 208.144 57.5787 209.253 56.384 210.064C55.1893 210.875 53.7387 211.536 52.032 212.048C49.1733 212.901 45.952 213.328 42.368 213.328C42.496 215.589 43.2 217.424 44.48 218.832C45.76 220.197 47.7227 220.88 50.368 220.88C53.0133 220.88 55.6587 219.941 58.304 218.064L60.736 223.248C59.8827 224.016 58.432 224.805 56.384 225.616C54.3787 226.427 52.0747 226.832 49.472 226.832C44.2667 226.832 40.448 225.403 38.016 222.544C35.584 219.643 34.368 215.675 34.368 210.64C34.368 205.605 35.7547 201.381 38.528 197.968C41.3013 194.555 45.184 192.848 50.176 192.848ZM47.232 207.504C48.8107 207.205 50.2613 206.587 51.584 205.648C52.9067 204.667 53.568 203.515 53.568 202.192C53.568 199.589 52.288 198.288 49.728 198.288C47.3387 198.288 45.504 199.248 44.224 201.168C42.944 203.045 42.24 205.307 42.112 207.952C43.9893 207.909 45.696 207.76 47.232 207.504ZM64.92 210.512V204.624H81.688V210.512H64.92ZM93.481 209.552C93.481 213.179 94.1637 215.995 95.529 218C96.8943 220.005 98.857 221.008 101.417 221.008C104.02 221.008 106.58 220.091 109.097 218.256L111.849 223.184C108.82 225.659 105.022 226.896 100.457 226.896C95.8917 226.896 92.2863 225.467 89.641 222.608C87.0383 219.707 85.737 215.44 85.737 209.808C85.737 204.176 87.2303 199.952 90.217 197.136C93.2463 194.277 96.6383 192.848 100.393 192.848C104.19 192.848 107.71 193.723 110.953 195.472V203.792L105.065 204.24V201.168C105.065 200.016 104.638 199.312 103.785 199.056C102.974 198.757 102.121 198.608 101.225 198.608C96.0623 198.608 93.481 202.256 93.481 209.552ZM129.957 221.328C134.608 221.328 136.933 217.573 136.933 210.064C136.933 206.267 136.4 203.387 135.333 201.424C134.309 199.461 132.56 198.48 130.085 198.48C127.653 198.48 125.861 199.419 124.709 201.296C123.557 203.173 122.981 205.733 122.981 208.976C122.981 214.992 124.09 218.768 126.309 220.304C127.29 220.987 128.506 221.328 129.957 221.328ZM115.237 209.872C115.237 206.715 115.706 203.984 116.645 201.68C117.584 199.333 118.842 197.541 120.421 196.304C123.45 194 126.8 192.848 130.469 192.848C133.029 192.848 135.184 193.275 136.933 194.128C138.725 194.939 140.112 195.899 141.093 197.008C142.117 198.075 142.97 199.653 143.653 201.744C144.378 203.792 144.741 206.224 144.741 209.04C144.741 214.928 143.312 219.387 140.453 222.416C137.594 225.445 133.925 226.96 129.445 226.96C125.008 226.96 121.53 225.531 119.013 222.672C116.496 219.771 115.237 215.504 115.237 209.872ZM148.666 198.992V193.808H159.482V197.968C161.871 194.555 165.135 192.848 169.274 192.848C173.455 192.848 176.271 194.555 177.722 197.968C180.111 194.555 183.354 192.848 187.45 192.848C190.522 192.848 192.89 193.787 194.554 195.664C196.218 197.499 197.05 200.272 197.05 203.984V220.688L200.698 220.88V226H185.466V221.136L187.578 220.944C188.218 220.859 188.666 220.688 188.922 220.432C189.22 220.133 189.391 219.621 189.434 218.896V205.648C189.434 203.301 189.156 201.573 188.602 200.464C188.09 199.312 186.852 198.736 184.89 198.736C182.927 198.736 181.412 199.333 180.346 200.528C179.322 201.723 178.81 203.323 178.81 205.328V220.688L182.33 220.88V226H167.226V221.136L169.338 220.944C169.978 220.859 170.447 220.688 170.746 220.432C171.044 220.133 171.194 219.6 171.194 218.832V205.648C171.194 203.301 170.916 201.573 170.362 200.464C169.85 199.312 168.591 198.736 166.586 198.736C164.623 198.736 163.13 199.355 162.106 200.592C161.082 201.829 160.57 203.365 160.57 205.2V220.688L164.026 220.88V226H148.922V221.136L151.034 220.944C151.674 220.859 152.143 220.688 152.442 220.432C152.74 220.133 152.89 219.6 152.89 218.832H152.954V201.168C152.954 200.443 152.826 199.952 152.57 199.696C152.356 199.397 151.951 199.227 151.354 199.184L148.666 198.992ZM204.103 198.992V193.808H214.919V197.968C217.308 194.555 220.572 192.848 224.711 192.848C228.892 192.848 231.708 194.555 233.159 197.968C235.548 194.555 238.791 192.848 242.887 192.848C245.959 192.848 248.327 193.787 249.991 195.664C251.655 197.499 252.487 200.272 252.487 203.984V220.688L256.135 220.88V226H240.903V221.136L243.015 220.944C243.655 220.859 244.103 220.688 244.359 220.432C244.658 220.133 244.828 219.621 244.871 218.896V205.648C244.871 203.301 244.594 201.573 244.039 200.464C243.527 199.312 242.29 198.736 240.327 198.736C238.364 198.736 236.85 199.333 235.783 200.528C234.759 201.723 234.247 203.323 234.247 205.328V220.688L237.767 220.88V226H222.663V221.136L224.775 220.944C225.415 220.859 225.884 220.688 226.183 220.432C226.482 220.133 226.631 219.6 226.631 218.832V205.648C226.631 203.301 226.354 201.573 225.799 200.464C225.287 199.312 224.028 198.736 222.023 198.736C220.06 198.736 218.567 199.355 217.543 200.592C216.519 201.829 216.007 203.365 216.007 205.2V220.688L219.463 220.88V226H204.359V221.136L206.471 220.944C207.111 220.859 207.58 220.688 207.879 220.432C208.178 220.133 208.327 219.6 208.327 218.832H208.391V201.168C208.391 200.443 208.263 199.952 208.007 199.696C207.794 199.397 207.388 199.227 206.791 199.184L204.103 198.992ZM275.989 192.848C279.189 192.848 281.727 193.637 283.605 195.216C285.482 196.752 286.421 198.928 286.421 201.744C286.421 203.621 286.015 205.285 285.205 206.736C284.394 208.144 283.391 209.253 282.197 210.064C281.002 210.875 279.551 211.536 277.845 212.048C274.986 212.901 271.765 213.328 268.181 213.328C268.309 215.589 269.013 217.424 270.293 218.832C271.573 220.197 273.535 220.88 276.181 220.88C278.826 220.88 281.471 219.941 284.117 218.064L286.549 223.248C285.695 224.016 284.245 224.805 282.197 225.616C280.191 226.427 277.887 226.832 275.285 226.832C270.079 226.832 266.261 225.403 263.829 222.544C261.397 219.643 260.181 215.675 260.181 210.64C260.181 205.605 261.567 201.381 264.341 197.968C267.114 194.555 270.997 192.848 275.989 192.848ZM273.045 207.504C274.623 207.205 276.074 206.587 277.397 205.648C278.719 204.667 279.381 203.515 279.381 202.192C279.381 199.589 278.101 198.288 275.541 198.288C273.151 198.288 271.317 199.248 270.037 201.168C268.757 203.045 268.053 205.307 267.925 207.952C269.802 207.909 271.509 207.76 273.045 207.504ZM294.893 218.832V201.104C294.893 200.421 294.765 199.952 294.509 199.696C294.295 199.397 293.89 199.227 293.293 199.184L290.605 198.992V193.808H301.421V198.608C302.189 196.944 303.383 195.579 305.005 194.512C306.626 193.403 308.482 192.848 310.573 192.848C312.706 192.848 314.733 193.317 316.653 194.256V203.792L310.701 204.24V201.296C310.701 200.443 310.487 199.909 310.061 199.696C309.591 199.483 309.015 199.376 308.333 199.376C306.626 199.376 305.218 199.995 304.109 201.232C303.042 202.427 302.509 203.963 302.509 205.84V220.688L308.077 220.944V226H290.924V221.136L293.036 220.944C293.677 220.859 294.146 220.688 294.445 220.432C294.743 220.133 294.893 219.6 294.893 218.832ZM336.318 198.672C335.294 198.288 334.056 198.096 332.606 198.096C331.155 198.096 329.982 198.437 329.086 199.12C328.232 199.76 327.806 200.571 327.806 201.552C327.806 202.491 327.955 203.237 328.254 203.792C328.595 204.304 329.107 204.752 329.79 205.136C330.856 205.691 332.136 206.181 333.63 206.608C335.123 206.992 336.232 207.312 336.958 207.568C337.683 207.781 338.579 208.165 339.646 208.72C340.755 209.275 341.587 209.872 342.142 210.512C343.635 212.091 344.382 214.117 344.382 216.592C344.382 219.792 343.208 222.309 340.862 224.144C338.558 225.936 335.614 226.832 332.03 226.832C326.824 226.832 322.899 226.171 320.254 224.848V215.952L326.014 215.504V218.576C326.014 220.453 327.806 221.392 331.39 221.392C334.974 221.392 336.766 220.091 336.766 217.488C336.766 216.549 336.446 215.781 335.806 215.184C335.208 214.587 334.611 214.181 334.014 213.968C333.416 213.755 332.691 213.541 331.838 213.328C331.027 213.115 330.216 212.901 329.406 212.688C328.638 212.475 327.784 212.197 326.845 211.856C325.95 211.472 324.947 210.939 323.838 210.256C321.662 208.848 320.574 206.501 320.574 203.216C320.574 199.888 321.747 197.328 324.094 195.536C326.44 193.744 329.384 192.848 332.926 192.848C336.51 192.848 340.051 193.701 343.55 195.408V203.088L337.79 203.536V200.848C337.79 199.781 337.299 199.056 336.318 198.672ZM55.296 282.088H61.504L68.16 305.896H68.288L72.64 286.12L69.376 285.928V280.808H82.24V285.736L80.128 285.864C79.2747 285.949 78.6987 286.461 78.4 287.4L72.32 313H63.104L57.856 293.928H57.664L52.224 313H42.816L36.352 287.464C36.1387 286.867 35.904 286.461 35.648 286.248C35.4347 286.035 35.0507 285.907 34.496 285.864L32.64 285.736V280.808H47.296V285.928L43.712 286.12L48.128 305.768H48.256L55.296 282.088ZM101.051 279.848C104.251 279.848 106.79 280.637 108.667 282.216C110.544 283.752 111.483 285.928 111.483 288.744C111.483 290.621 111.078 292.285 110.267 293.736C109.456 295.144 108.454 296.253 107.259 297.064C106.064 297.875 104.614 298.536 102.907 299.048C100.048 299.901 96.827 300.328 93.243 300.328C93.371 302.589 94.075 304.424 95.355 305.832C96.635 307.197 98.5977 307.88 101.243 307.88C103.888 307.88 106.534 306.941 109.179 305.064L111.611 310.248C110.758 311.016 109.307 311.805 107.259 312.616C105.254 313.427 102.95 313.832 100.347 313.832C95.1417 313.832 91.323 312.403 88.891 309.544C86.459 306.643 85.243 302.675 85.243 297.64C85.243 292.605 86.6297 288.381 89.403 284.968C92.1763 281.555 96.059 279.848 101.051 279.848ZM98.107 294.504C99.6857 294.205 101.136 293.587 102.459 292.648C103.782 291.667 104.443 290.515 104.443 289.192C104.443 286.589 103.163 285.288 100.603 285.288C98.2137 285.288 96.379 286.248 95.099 288.168C93.819 290.045 93.115 292.307 92.987 294.952C94.8643 294.909 96.571 294.76 98.107 294.504ZM118.803 311.08V274.344C118.803 273.363 118.27 272.851 117.203 272.808L114.963 272.68V267.368H126.227V282.536C128.147 280.744 130.728 279.848 133.971 279.848C137.982 279.848 141.16 281.213 143.507 283.944C145.854 286.632 147.027 290.429 147.027 295.336C147.027 307.667 141.864 313.832 131.539 313.832C129.32 313.832 126.974 313.555 124.499 313C122.067 312.488 120.168 311.848 118.803 311.08ZM126.227 290.344V306.92C127.848 307.773 129.726 308.2 131.859 308.2C136.723 308.2 139.155 304.253 139.155 296.36C139.155 289.149 136.766 285.544 131.987 285.544C130.451 285.544 129.107 285.992 127.955 286.888C126.803 287.784 126.227 288.936 126.227 290.344ZM168.318 285.672C167.294 285.288 166.056 285.096 164.606 285.096C163.155 285.096 161.982 285.437 161.086 286.12C160.232 286.76 159.806 287.571 159.806 288.552C159.806 289.491 159.955 290.237 160.254 290.792C160.595 291.304 161.107 291.752 161.79 292.136C162.856 292.691 164.136 293.181 165.63 293.608C167.123 293.992 168.232 294.312 168.958 294.568C169.683 294.781 170.579 295.165 171.646 295.72C172.755 296.275 173.587 296.872 174.142 297.512C175.635 299.091 176.382 301.117 176.382 303.592C176.382 306.792 175.208 309.309 172.862 311.144C170.558 312.936 167.614 313.832 164.03 313.832C158.824 313.832 154.899 313.171 152.254 311.848V302.952L158.014 302.504V305.576C158.014 307.453 159.806 308.392 163.39 308.392C166.974 308.392 168.766 307.091 168.766 304.488C168.766 303.549 168.446 302.781 167.806 302.184C167.208 301.587 166.611 301.181 166.014 300.968C165.416 300.755 164.691 300.541 163.838 300.328C163.027 300.115 162.216 299.901 161.406 299.688C160.638 299.475 159.784 299.197 158.845 298.856C157.95 298.472 156.947 297.939 155.838 297.256C153.662 295.848 152.574 293.501 152.574 290.216C152.574 286.888 153.747 284.328 156.094 282.536C158.44 280.744 161.384 279.848 164.926 279.848C168.51 279.848 172.051 280.701 175.55 282.408V290.088L169.79 290.536V287.848C169.79 286.781 169.299 286.056 168.318 285.672ZM192.009 280.808V307.688L195.657 307.88V313H180.424V308.136L182.536 307.944C183.774 307.816 184.393 307.133 184.393 305.896V288.104C184.393 287.379 184.265 286.888 184.009 286.632C183.795 286.376 183.39 286.248 182.793 286.248L180.553 286.12V280.808H192.009ZM183.945 275.304C183.049 274.408 182.601 273.277 182.601 271.912C182.601 270.547 183.049 269.416 183.945 268.52C184.841 267.581 186.014 267.112 187.465 267.112C188.915 267.112 190.089 267.581 190.985 268.52C191.923 269.416 192.393 270.547 192.393 271.912C192.393 273.277 191.923 274.408 190.985 275.304C190.089 276.157 188.915 276.584 187.465 276.584C186.014 276.584 184.841 276.157 183.945 275.304ZM206.466 274.024H210.626V280.808H219.138L218.498 286.184H210.626V303.016C210.626 304.893 210.967 306.216 211.65 306.984C212.333 307.709 213.378 308.072 214.786 308.072C216.237 308.072 217.687 307.624 219.138 306.728L221.058 311.656C218.925 313.149 216.215 313.896 212.93 313.896C211.01 313.896 209.389 313.64 208.066 313.128C206.743 312.659 205.762 312.125 205.122 311.528C204.482 310.931 203.991 310.056 203.65 308.904C203.309 307.752 203.117 306.856 203.074 306.216C203.031 305.533 203.01 304.552 203.01 303.272V286.184H198.466L199.106 281.512C201.111 281.341 202.626 280.637 203.65 279.4C204.674 278.12 205.613 276.328 206.466 274.024ZM239.551 279.848C242.751 279.848 245.29 280.637 247.167 282.216C249.044 283.752 249.983 285.928 249.983 288.744C249.983 290.621 249.578 292.285 248.767 293.736C247.956 295.144 246.954 296.253 245.759 297.064C244.564 297.875 243.114 298.536 241.407 299.048C238.548 299.901 235.327 300.328 231.743 300.328C231.871 302.589 232.575 304.424 233.855 305.832C235.135 307.197 237.098 307.88 239.743 307.88C242.388 307.88 245.034 306.941 247.679 305.064L250.111 310.248C249.258 311.016 247.807 311.805 245.759 312.616C243.754 313.427 241.45 313.832 238.847 313.832C233.642 313.832 229.823 312.403 227.391 309.544C224.959 306.643 223.743 302.675 223.743 297.64C223.743 292.605 225.13 288.381 227.903 284.968C230.676 281.555 234.559 279.848 239.551 279.848ZM236.607 294.504C238.186 294.205 239.636 293.587 240.959 292.648C242.282 291.667 242.943 290.515 242.943 289.192C242.943 286.589 241.663 285.288 239.103 285.288C236.714 285.288 234.879 286.248 233.599 288.168C232.319 290.045 231.615 292.307 231.487 294.952C233.364 294.909 235.071 294.76 236.607 294.504Z" fill="white"/>
<path d="M219.648 444.792L226.08 464.136H226.32L233.04 443.352L230.112 443.16V439.08H241.152V442.968L239.568 443.112C239.152 443.144 238.848 443.272 238.656 443.496C238.464 443.688 238.272 444.04 238.08 444.552L229.008 471H222.768L212.976 443.304L210.24 443.16V439.08H222.624V442.968L221.04 443.112C220.048 443.176 219.552 443.56 219.552 444.264C219.552 444.424 219.584 444.6 219.648 444.792ZM251.678 446.856V467.016L254.414 467.16V471H242.99V467.352L244.574 467.208C245.502 467.112 245.966 466.6 245.966 465.672V452.328C245.966 451.784 245.87 451.416 245.678 451.224C245.518 451.032 245.214 450.936 244.766 450.936L243.086 450.84V446.856H251.678ZM245.63 442.728C244.958 442.056 244.622 441.208 244.622 440.184C244.622 439.16 244.958 438.312 245.63 437.64C246.302 436.936 247.182 436.584 248.27 436.584C249.358 436.584 250.238 436.936 250.91 437.64C251.614 438.312 251.966 439.16 251.966 440.184C251.966 441.208 251.614 442.056 250.91 442.728C250.238 443.368 249.358 443.688 248.27 443.688C247.182 443.688 246.302 443.368 245.63 442.728ZM269.241 446.136C271.641 446.136 273.545 446.728 274.953 447.912C276.361 449.064 277.065 450.696 277.065 452.808C277.065 454.216 276.761 455.464 276.153 456.552C275.545 457.608 274.793 458.44 273.897 459.048C273.001 459.656 271.913 460.152 270.633 460.536C268.489 461.176 266.073 461.496 263.385 461.496C263.481 463.192 264.009 464.568 264.969 465.624C265.929 466.648 267.401 467.16 269.385 467.16C271.369 467.16 273.353 466.456 275.337 465.048L277.161 468.936C276.521 469.512 275.433 470.104 273.897 470.712C272.393 471.32 270.665 471.624 268.713 471.624C264.809 471.624 261.945 470.552 260.121 468.408C258.297 466.232 257.385 463.256 257.385 459.48C257.385 455.704 258.425 452.536 260.505 449.976C262.585 447.416 265.497 446.136 269.241 446.136ZM267.033 457.128C268.217 456.904 269.305 456.44 270.297 455.736C271.289 455 271.785 454.136 271.785 453.144C271.785 451.192 270.825 450.216 268.905 450.216C267.113 450.216 265.737 450.936 264.777 452.376C263.817 453.784 263.289 455.48 263.193 457.464C264.601 457.432 265.881 457.32 267.033 457.128ZM295.863 447.816H300.519L305.511 465.672H305.607L308.871 450.84L306.423 450.696V446.856H316.071V450.552L314.487 450.648C313.847 450.712 313.415 451.096 313.191 451.8L308.631 471H301.719L297.783 456.696H297.639L293.559 471H286.503L281.655 451.848C281.495 451.4 281.319 451.096 281.127 450.936C280.967 450.776 280.679 450.68 280.263 450.648L278.871 450.552V446.856H289.863V450.696L287.175 450.84L290.487 465.576H290.583L295.863 447.816Z" fill="white"/>
<path d="M328 460.5H388M388 460.5L366 435.5M388 460.5L366 482" stroke="white" stroke-width="3"/>
</svg>
